<?xml version="1.0" standalone="no"?>
<!DOCTYPE svg PUBLIC "-//W3C//DTD SVG 20010904//EN"
 "http://www.w3.org/TR/2001/REC-SVG-20010904/DTD/svg10.dtd">
<svg version="1.0" xmlns="http://www.w3.org/2000/svg"
 width="1401.000000pt" height="1401.000000pt" viewBox="0 0 1401.000000 1401.000000"
 preserveAspectRatio="xMidYMid meet">
<g transform="translate(0.000000,1401.000000) scale(0.100000,-0.100000)"
fill="#000000" stroke="none">
<path d="M6701 13992 c-35 -11 -44 -57 -37 -177 4 -78 9 -103 23 -112 24 -19
646 -19 660 0 6 6 14 50 18 97 13 144 13 169 -3 183 -17 13 -617 21 -661 9z"/>
<path d="M6310 13978 c-83 -22 -120 -27 -202 -28 -57 0 -108 -7 -150 -20 -34
-11 -88 -20 -119 -20 -92 0 -128 -21 -134 -75 -1 -5 2 -15 6 -20 4 -6 12 -50
17 -98 8 -76 14 -93 37 -117 26 -27 30 -28 54 -16 14 7 69 16 121 19 52 3 111
12 130 20 22 9 89 17 180 21 118 5 147 10 158 23 8 11 12 56 12 133 0 120 -12
180 -35 180 -7 0 -19 2 -27 4 -7 2 -29 0 -48 -6z"/>
<path d="M7649 13954 c-13 -35 -34 -129 -44 -201 -6 -47 -4 -54 19 -78 16 -16
37 -25 58 -26 97 -2 260 -20 308 -33 30 -9 84 -16 120 -16 37 -1 76 -7 90 -15
34 -20 67 -19 78 3 5 9 12 37 16 61 4 24 13 56 22 73 21 40 21 120 1 151 -17
26 -57 37 -142 37 -28 0 -76 9 -108 20 -39 14 -83 20 -144 20 -49 1 -108 5
-133 11 -25 5 -64 12 -87 16 -40 5 -43 4 -54 -23z"/>
<path d="M5310 13800 c-19 -11 -53 -19 -75 -20 -23 0 -57 -8 -78 -19 -20 -10
-61 -22 -91 -25 -30 -4 -60 -14 -66 -21 -6 -8 -33 -17 -58 -20 -26 -4 -63 -14
-82 -24 -19 -10 -48 -21 -63 -25 -26 -6 -28 -10 -23 -39 14 -81 25 -119 38
-135 9 -9 18 -37 21 -61 3 -24 11 -48 19 -52 22 -15 66 -10 105 11 21 11 47
20 59 20 12 0 41 9 65 20 24 11 60 20 79 20 19 0 53 9 75 19 22 10 65 21 95
25 30 4 64 13 75 20 11 7 35 17 52 20 36 8 58 30 47 47 -4 6 -12 55 -19 109
-11 79 -18 102 -38 123 -30 33 -85 36 -137 7z"/>
<path d="M8591 13798 c-5 -13 -12 -43 -16 -68 -4 -24 -13 -54 -20 -65 -20 -31
-29 -114 -14 -131 18 -22 95 -53 152 -60 29 -4 68 -15 87 -25 19 -11 53 -19
76 -19 26 0 51 -7 67 -20 15 -12 40 -20 62 -20 21 0 52 -9 69 -19 28 -18 111
-32 118 -20 2 2 13 19 26 37 12 17 26 52 31 76 4 25 16 52 25 61 13 14 15 27
10 64 -8 59 -10 61 -42 61 -15 0 -43 8 -62 18 -19 11 -54 22 -78 26 -24 3 -54
13 -66 21 -12 8 -45 18 -72 21 -27 4 -65 15 -84 26 -19 10 -53 18 -75 18 -22
0 -57 9 -78 20 -52 28 -105 27 -116 -2z"/>
<path d="M4435 13523 c-11 -3 -27 -11 -36 -19 -8 -8 -31 -17 -50 -20 -19 -4
-45 -15 -58 -26 -13 -10 -34 -18 -46 -18 -12 0 -34 -9 -48 -20 -14 -11 -34
-20 -45 -20 -10 0 -31 -9 -45 -20 -14 -11 -29 -20 -33 -20 -12 0 -165 -78
-188 -95 -19 -14 -19 -16 -3 -50 9 -20 17 -42 17 -49 0 -7 9 -21 20 -31 11
-10 20 -28 20 -39 1 -12 16 -38 34 -60 32 -37 35 -38 78 -32 26 4 54 16 63 26
10 11 28 20 40 20 12 0 34 9 48 20 14 11 34 20 45 20 10 0 30 8 43 19 13 10
38 22 56 25 17 4 37 14 43 21 7 8 28 17 49 21 20 4 47 15 60 25 13 11 36 19
52 19 20 0 34 9 50 31 21 30 21 33 5 59 -9 16 -16 39 -16 52 0 12 -9 37 -20
53 -11 17 -20 42 -20 56 0 15 -6 32 -14 38 -17 14 -73 22 -101 14z"/>
<path d="M9523 13506 c-38 -44 -53 -71 -53 -99 0 -15 -9 -40 -21 -56 -15 -21
-19 -39 -17 -77 3 -48 3 -49 42 -55 21 -3 41 -12 46 -18 4 -7 26 -17 50 -22
23 -5 54 -19 68 -29 13 -11 34 -20 44 -20 11 0 31 -9 45 -20 14 -11 36 -20 48
-20 12 0 30 -9 40 -20 10 -11 28 -20 40 -20 12 0 34 -9 48 -20 14 -11 32 -20
40 -20 8 0 26 -10 41 -21 l27 -21 27 23 c37 33 42 41 42 67 0 12 7 25 15 28 8
3 19 22 26 42 6 21 18 41 25 45 8 4 14 23 14 42 0 40 -23 57 -145 114 -38 17
-87 41 -107 51 -20 11 -46 20 -56 20 -11 0 -25 7 -32 15 -7 8 -27 17 -45 21
-19 3 -41 15 -51 25 -9 10 -29 19 -43 19 -15 0 -37 7 -50 16 -13 9 -38 20 -56
24 -27 6 -37 4 -52 -14z"/>
<path d="M6735 13370 c-38 -4 -142 -8 -230 -9 -174 -2 -232 -10 -252 -37 -18
-24 -16 -97 2 -141 9 -21 18 -63 22 -95 8 -78 18 -85 101 -69 140 27 171 30
312 30 199 1 190 -6 190 167 l0 135 -35 15 c-19 7 -36 13 -37 12 -2 0 -34 -4
-73 -8z"/>
<path d="M7140 13361 c-6 -13 -10 -74 -8 -163 l3 -143 190 -6 c132 -4 207 -11
244 -23 84 -25 106 -22 137 20 26 34 28 44 32 153 3 91 1 120 -11 135 -13 18
-34 20 -267 27 -139 5 -265 11 -280 14 -22 5 -31 2 -40 -14z"/>
<path d="M5840 13275 c-52 -7 -113 -20 -135 -28 -22 -9 -63 -16 -90 -17 -30 0
-65 -8 -88 -20 -21 -11 -56 -20 -82 -20 -35 0 -47 -4 -55 -21 -15 -28 -3 -115
21 -155 10 -17 19 -49 19 -71 0 -25 6 -46 16 -54 24 -20 147 -13 194 11 24 12
59 20 92 20 31 0 71 9 97 20 24 11 66 20 95 21 28 1 62 4 75 8 36 10 45 54 25
122 -9 30 -19 79 -23 109 -14 100 -5 96 -161 75z"/>
<path d="M8013 13280 c-28 -11 -30 -24 -37 -178 l-6 -123 26 -9 c14 -6 44 -10
67 -10 24 0 68 -9 100 -20 31 -11 78 -20 104 -20 28 0 63 -8 83 -19 19 -10 66
-20 103 -23 74 -6 97 4 97 45 0 13 7 33 16 45 9 13 20 46 25 75 4 29 11 66 15
83 8 41 -15 64 -64 64 -21 0 -54 9 -75 20 -23 12 -57 20 -89 20 -29 1 -71 8
-93 16 -67 26 -239 47 -272 34z"/>
<path d="M3600 13115 c-7 -8 -20 -15 -30 -15 -9 0 -28 -8 -41 -18 -13 -10 -49
-33 -80 -50 -31 -18 -62 -39 -69 -47 -7 -8 -21 -15 -31 -15 -9 0 -25 -7 -34
-16 -23 -24 -79 -61 -103 -68 -10 -4 -27 -15 -37 -26 -10 -11 -22 -20 -26 -20
-4 0 -28 -14 -53 -31 -39 -26 -46 -35 -46 -63 0 -19 7 -39 15 -46 8 -6 17 -22
21 -33 4 -12 16 -31 28 -43 21 -21 45 -52 70 -88 13 -18 17 -19 57 -7 24 7 64
30 89 51 25 20 56 41 70 45 14 4 30 14 35 22 11 15 39 32 91 56 17 8 35 20 38
26 4 6 22 18 39 26 18 8 50 26 72 40 22 13 55 31 73 40 39 19 40 35 1 100 -16
28 -36 66 -45 85 -19 40 -72 110 -84 110 -4 0 -13 -7 -20 -15z"/>
<path d="M5065 13080 c-22 -11 -52 -19 -67 -20 -15 0 -42 -9 -60 -20 -18 -11
-44 -20 -57 -20 -13 0 -38 -8 -55 -19 -17 -10 -48 -22 -68 -25 -21 -4 -43 -13
-50 -20 -8 -7 -30 -16 -51 -20 -21 -4 -57 -20 -82 -37 -45 -30 -49 -44 -19
-79 6 -8 17 -32 22 -52 6 -21 17 -45 26 -54 9 -8 16 -27 16 -40 0 -16 12 -37
32 -55 37 -33 41 -34 58 -14 7 8 25 15 40 15 15 0 38 9 52 19 13 11 42 23 64
27 21 4 50 15 63 25 13 11 38 19 56 19 18 0 44 9 58 20 14 11 40 20 59 21 45
1 62 9 88 42 18 23 21 33 12 50 -6 12 -13 42 -17 67 -3 25 -12 54 -20 66 -7
12 -17 39 -21 60 -6 38 -20 64 -33 64 -3 -1 -24 -9 -46 -20z"/>
<path d="M8866 13077 c-20 -18 -29 -37 -35 -78 -5 -30 -16 -67 -25 -84 -21
-40 -21 -107 2 -134 11 -14 35 -24 68 -30 28 -4 61 -15 75 -24 13 -9 38 -17
55 -17 17 0 42 -8 55 -19 13 -10 42 -21 64 -25 22 -4 47 -13 55 -20 8 -6 41
-20 73 -31 69 -22 84 -16 104 40 7 21 20 46 28 55 8 9 15 26 15 37 0 11 9 30
20 43 32 37 26 80 -14 113 -19 15 -44 27 -54 27 -10 0 -40 11 -66 25 -26 14
-56 25 -66 25 -11 0 -34 9 -52 20 -18 11 -46 20 -61 20 -15 0 -40 9 -55 19
-15 10 -47 22 -70 25 -24 4 -51 13 -59 21 -19 20 -25 19 -57 -8z"/>
<path d="M10376 13084 c-9 -8 -16 -23 -16 -33 0 -10 -9 -26 -20 -36 -11 -10
-20 -26 -20 -36 0 -10 -7 -25 -16 -33 -9 -9 -20 -32 -26 -52 -8 -32 -7 -39 14
-61 13 -14 38 -32 56 -39 17 -8 32 -18 32 -23 0 -5 13 -12 30 -16 16 -4 33
-13 38 -20 4 -8 21 -20 37 -27 46 -21 105 -59 105 -68 0 -4 12 -11 27 -15 15
-3 35 -13 43 -21 34 -32 76 -62 97 -68 11 -4 27 -13 33 -21 25 -30 41 -19 115
71 14 18 25 37 25 43 0 5 8 18 18 28 11 10 27 33 37 50 l19 33 -29 30 c-16 16
-32 30 -36 30 -5 0 -29 15 -54 33 -25 17 -58 39 -73 47 -15 9 -47 29 -71 45
-49 33 -82 53 -168 104 -32 19 -69 43 -82 53 -29 22 -94 24 -115 2z"/>
<path d="M9674 12738 c-23 -21 -34 -39 -34 -58 0 -15 -9 -37 -20 -50 -11 -13
-20 -32 -20 -43 0 -12 -10 -31 -22 -44 -36 -39 -15 -62 118 -128 66 -33 125
-65 132 -72 7 -7 20 -13 29 -13 8 0 28 -11 45 -25 16 -14 37 -25 46 -25 8 0
25 -8 36 -18 41 -36 70 -42 104 -22 17 10 33 28 37 40 8 25 44 81 69 105 9 9
16 24 16 33 0 9 7 26 15 36 22 29 19 35 -20 52 -19 8 -35 18 -35 23 0 5 -17
16 -37 25 -39 16 -58 27 -103 57 -14 9 -37 20 -50 24 -14 4 -36 16 -49 26 -13
11 -31 19 -40 19 -9 0 -24 9 -34 20 -9 11 -27 20 -40 20 -13 0 -32 9 -41 19
-30 33 -64 32 -102 -1z"/>
<path d="M4211 12740 c-13 -11 -31 -20 -42 -20 -10 0 -21 -5 -25 -11 -3 -6
-25 -19 -49 -29 -24 -10 -46 -23 -49 -29 -4 -6 -16 -11 -27 -11 -10 0 -27 -8
-38 -19 -10 -10 -30 -21 -45 -25 -14 -3 -35 -15 -46 -26 -11 -11 -27 -20 -36
-20 -8 0 -33 -14 -55 -32 -35 -28 -39 -35 -33 -62 4 -17 15 -42 25 -55 11 -13
19 -29 19 -36 0 -7 11 -24 25 -39 14 -15 25 -33 25 -40 0 -18 67 -79 74 -68 3
6 37 25 74 43 37 18 71 38 75 46 4 7 16 13 27 13 10 0 32 11 48 25 17 14 39
25 49 25 11 0 28 9 38 20 10 11 28 20 40 20 12 0 30 9 40 20 10 11 27 20 37
20 62 0 74 48 33 126 -14 26 -25 53 -25 61 0 8 -9 26 -20 40 -11 14 -20 33
-20 42 0 43 -76 56 -119 21z"/>
<path d="M2763 12576 c-10 -17 -142 -126 -153 -126 -4 0 -35 -26 -67 -57 -81
-80 -189 -175 -218 -193 -14 -8 -29 -26 -34 -41 -8 -24 -1 -34 84 -122 69 -71
100 -97 118 -97 17 0 45 20 88 63 65 63 177 157 188 157 3 0 28 20 54 45 27
25 75 66 108 91 32 26 59 50 59 54 0 17 -31 80 -39 80 -5 0 -13 12 -19 28 -16
45 -104 132 -135 132 -14 0 -30 -6 -34 -14z"/>
<path d="M11204 12568 c-12 -5 -26 -18 -30 -28 -5 -10 -24 -36 -41 -57 -57
-66 -91 -125 -85 -145 2 -10 16 -27 29 -36 14 -9 32 -24 42 -32 30 -28 137
-115 165 -135 35 -25 98 -81 184 -162 36 -35 70 -63 75 -63 5 0 51 42 103 92
119 118 122 134 37 205 -32 27 -85 74 -118 104 -70 66 -95 88 -150 129 -75 57
-85 65 -125 103 -42 39 -52 42 -86 25z"/>
<path d="M3479 12323 c-17 -21 -74 -63 -88 -63 -10 0 -50 -31 -86 -67 -12 -13
-26 -23 -31 -23 -11 0 -81 -50 -118 -84 -17 -16 -48 -39 -68 -52 -70 -44 -70
-87 0 -154 21 -19 57 -58 80 -86 49 -61 73 -70 100 -40 40 43 149 127 190 145
12 6 22 14 22 19 0 10 71 58 100 67 11 3 25 15 30 26 6 10 17 19 24 19 16 0
56 42 56 60 0 7 -7 22 -17 32 -19 21 -36 49 -58 96 -9 18 -22 35 -30 39 -8 3
-15 13 -15 22 0 45 -67 77 -91 44z"/>
<path d="M10441 12313 c-17 -15 -31 -33 -31 -39 0 -6 -9 -19 -19 -28 -11 -10
-22 -29 -26 -43 -3 -14 -15 -33 -26 -42 -11 -9 -22 -33 -25 -53 -7 -38 9 -61
62 -96 10 -7 33 -21 49 -32 17 -11 53 -36 80 -55 28 -20 58 -41 69 -48 10 -7
35 -27 55 -46 45 -43 120 -91 140 -91 14 0 27 15 76 88 9 12 33 40 112 125 16
16 13 21 -42 72 -33 30 -65 55 -71 55 -10 0 -38 22 -84 65 -20 18 -89 65 -96
65 -3 0 -30 20 -61 45 -30 25 -60 45 -67 45 -7 0 -21 9 -31 20 -23 26 -27 25
-64 -7z"/>
<path d="M1982 11873 c-39 -43 -84 -94 -99 -112 -15 -19 -50 -60 -78 -90 -27
-31 -54 -62 -60 -70 -5 -7 -36 -41 -67 -74 -32 -33 -58 -69 -58 -80 0 -11 19
-36 42 -56 22 -20 55 -48 71 -63 17 -16 33 -28 37 -28 4 0 18 -9 31 -21 27
-24 77 -20 94 8 20 32 105 132 167 195 161 165 228 241 228 260 0 33 -177 208
-210 208 -19 0 -44 -19 -98 -77z"/>
<path d="M11940 11933 c-23 -8 -187 -178 -194 -201 -7 -22 1 -31 196 -236 115
-119 108 -112 161 -182 63 -84 73 -91 95 -70 10 9 24 16 30 16 7 0 17 9 24 20
7 11 18 20 25 20 7 0 39 23 72 50 81 67 81 84 0 170 -33 36 -94 105 -135 153
-121 144 -238 267 -250 266 -5 0 -16 -3 -24 -6z"/>
<path d="M11118 11759 c-18 -21 -61 -69 -95 -105 -60 -65 -62 -67 -48 -94 8
-15 25 -34 38 -42 13 -9 97 -88 187 -177 127 -126 169 -161 189 -161 19 0 52
26 124 94 53 52 97 99 97 104 0 6 -42 52 -94 103 -205 205 -310 302 -337 309
-24 7 -32 4 -61 -31z"/>
<path d="M2758 11763 c-34 -27 -320 -311 -367 -365 l-24 -28 93 -90 c52 -49
106 -94 121 -99 34 -12 47 -2 179 130 52 52 129 124 170 159 99 84 104 103 40
169 -26 27 -60 66 -76 88 -55 72 -81 79 -136 36z"/>
<path d="M1438 11217 c-27 -28 -80 -94 -113 -142 -109 -157 -172 -251 -187
-279 -9 -18 -23 -38 -32 -45 -9 -8 -16 -18 -16 -23 0 -5 -9 -21 -20 -35 -11
-14 -20 -33 -20 -42 1 -16 67 -63 107 -75 11 -4 24 -13 27 -21 3 -8 14 -15 24
-15 11 0 31 -9 46 -21 37 -29 77 -22 97 18 9 18 22 40 30 49 17 20 34 50 54
92 8 17 19 32 23 32 10 0 58 72 67 100 3 11 15 25 26 30 10 6 19 17 19 24 0 7
9 21 20 31 11 10 20 23 20 30 0 6 18 31 40 56 22 24 40 48 40 54 0 14 -84 90
-145 130 -29 20 -59 42 -65 50 -15 19 -25 19 -42 2z"/>
<path d="M12515 11170 c-22 -16 -60 -47 -84 -68 -24 -20 -50 -41 -57 -45 -21
-12 -17 -71 6 -92 11 -10 22 -27 26 -39 7 -21 12 -28 56 -76 13 -14 29 -37 36
-50 24 -46 37 -66 73 -110 20 -25 41 -59 48 -77 7 -17 19 -34 25 -36 7 -3 16
-19 19 -35 4 -19 17 -36 38 -49 32 -18 34 -18 71 0 21 11 38 23 38 27 0 4 12
11 28 15 15 3 35 14 45 23 10 9 33 21 50 27 45 14 47 50 8 119 -17 29 -38 59
-46 66 -8 7 -15 18 -15 25 0 7 -18 36 -40 64 -22 28 -40 54 -40 58 0 12 -54
87 -72 101 -10 7 -18 18 -18 23 0 6 -13 29 -29 52 -79 112 -106 125 -166 77z"/>
<path d="M11759 11162 c-14 -9 -34 -26 -45 -37 -11 -11 -50 -44 -87 -74 -87
-71 -87 -84 -4 -173 61 -65 69 -75 128 -153 48 -65 63 -85 78 -101 8 -9 22
-30 30 -47 19 -36 58 -52 92 -37 13 5 44 26 69 44 25 19 50 35 57 35 23 2 83
65 83 88 0 23 -95 153 -112 153 -4 0 -8 7 -8 15 0 15 -71 107 -124 160 -16 16
-36 41 -45 55 -32 50 -65 90 -75 90 -6 0 -22 -8 -37 -18z"/>
<path d="M2134 11110 c-21 -27 -41 -50 -44 -50 -7 0 -110 -136 -110 -145 0 -4
-14 -21 -31 -38 -17 -17 -49 -59 -72 -94 -22 -35 -44 -63 -48 -63 -4 0 -9 -7
-12 -15 -6 -14 56 -85 73 -85 5 0 30 -15 56 -32 110 -77 106 -76 133 -62 26
14 91 90 91 107 0 6 7 17 15 26 20 22 56 64 83 98 12 15 33 42 47 59 14 18 25
34 25 37 0 2 18 24 40 48 61 67 57 76 -69 183 -110 93 -124 95 -177 26z"/>
<path d="M10330 10474 l-455 -284 -61 -113 c-33 -61 -189 -348 -346 -637 -157
-289 -362 -667 -456 -840 -269 -500 -916 -1616 -1517 -2618 l-68 -113 -34 118
c-57 199 -115 374 -238 718 -195 550 -260 724 -415 1115 -171 433 -225 576
-326 862 -272 772 -410 1399 -391 1774 l6 111 -107 6 c-59 3 -170 11 -247 18
-169 14 -531 6 -725 -16 -595 -67 -1103 -254 -1540 -565 -135 -97 -238 -184
-373 -318 -220 -217 -369 -423 -498 -687 -118 -243 -183 -460 -225 -750 -25
-170 -25 -554 -1 -720 19 -130 74 -374 88 -389 6 -7 397 358 733 684 l48 47
-47 99 c-209 438 -230 912 -56 1269 59 120 122 206 221 299 315 297 867 446
1647 446 161 0 183 -2 183 -16 0 -23 -593 -3485 -630 -3679 -74 -386 -157
-739 -212 -895 -82 -232 -227 -440 -404 -581 l-64 -51 -267 21 -267 21 -110
-108 c-61 -59 -198 -192 -305 -295 -106 -103 -191 -190 -188 -193 5 -5 1983
-96 2009 -92 9 2 150 129 314 283 l299 280 -60 7 c-33 4 -287 21 -565 38 -278
18 -511 34 -519 36 -7 2 26 29 75 60 257 160 430 345 535 568 82 177 163 461
243 857 25 123 143 811 261 1529 118 718 216 1312 218 1320 1 8 19 -51 40
-131 89 -356 190 -650 393 -1152 560 -1381 808 -2108 948 -2773 29 -140 76
-451 76 -507 0 -21 4 -37 10 -35 5 2 164 161 352 354 l343 350 74 185 c120
298 245 572 423 929 289 580 753 1390 1131 1975 140 216 540 805 544 801 2 -2
-6 -86 -17 -187 -118 -1098 -189 -2571 -190 -3918 0 -327 16 -960 25 -969 6
-6 1336 269 1520 314 271 67 382 129 401 222 8 41 -2 91 -24 120 l-18 23 -84
-24 c-153 -44 -272 -60 -460 -61 -196 -1 -249 9 -333 65 -143 94 -190 255
-218 739 -14 249 -7 634 32 1590 16 410 34 896 39 1080 20 702 93 1390 251
2359 56 344 51 311 42 310 -5 0 -213 -129 -463 -285z"/>
<path d="M1643 10443 c-10 -15 -23 -34 -30 -41 -7 -7 -13 -22 -13 -32 0 -11
-9 -24 -20 -30 -11 -6 -23 -23 -27 -38 -3 -14 -24 -51 -45 -82 -21 -30 -38
-63 -38 -72 0 -10 -9 -22 -20 -28 -11 -6 -20 -19 -20 -29 0 -10 -9 -30 -20
-43 -10 -14 -27 -47 -36 -74 -15 -45 -15 -48 2 -61 10 -7 23 -13 29 -13 7 0
20 -9 30 -20 10 -11 28 -20 41 -20 12 0 30 -8 40 -17 9 -9 39 -24 66 -34 l49
-16 28 36 c16 20 36 52 45 71 16 36 27 55 58 102 10 15 18 33 18 41 0 8 9 22
19 31 11 10 23 31 26 47 4 16 10 29 14 29 4 0 22 22 40 50 25 38 31 59 29 87
-3 36 -20 52 -98 89 -8 4 -35 24 -60 44 -64 53 -85 57 -107 23z"/>
<path d="M12280 10462 c-29 -13 -75 -47 -88 -64 -7 -10 -18 -18 -24 -18 -6 0
-30 -12 -54 -27 -38 -25 -43 -32 -44 -65 0 -27 5 -40 20 -48 11 -6 20 -18 20
-28 0 -9 17 -42 39 -73 21 -31 42 -65 45 -76 4 -11 15 -28 26 -38 11 -10 20
-28 20 -41 0 -13 6 -27 14 -31 8 -4 21 -24 30 -43 37 -81 51 -95 90 -94 20 1
44 8 54 16 9 9 28 19 42 23 14 4 32 13 40 21 9 7 33 19 55 26 24 8 45 24 54
40 14 25 14 29 -7 51 -12 13 -22 30 -22 39 0 8 -8 24 -18 36 -10 12 -33 51
-52 87 -18 36 -36 65 -41 65 -4 0 -10 13 -14 29 -3 16 -15 37 -26 47 -10 9
-19 22 -19 28 -1 27 -98 147 -118 145 -4 0 -14 -3 -22 -7z"/>
<path d="M897 10398 c-38 -66 -54 -98 -141 -273 -121 -245 -134 -274 -142
-311 -5 -27 -1 -33 33 -57 22 -15 50 -27 63 -27 13 0 31 -7 41 -16 10 -9 32
-19 51 -24 18 -4 40 -10 48 -14 24 -10 80 30 80 58 0 13 9 35 20 49 11 14 20
34 20 45 0 10 9 30 19 44 11 13 23 38 27 54 4 16 12 36 19 44 6 8 33 60 60
115 27 55 57 110 68 121 29 34 20 77 -21 90 -19 6 -37 15 -40 21 -7 10 -40 29
-98 57 -17 9 -34 22 -37 31 -10 23 -54 19 -70 -7z"/>
<path d="M13075 10382 c-11 -2 -31 -13 -44 -23 -13 -11 -30 -19 -37 -19 -8 0
-22 -9 -31 -20 -10 -11 -26 -20 -36 -20 -11 0 -34 -16 -53 -36 l-33 -37 19
-25 c11 -14 20 -30 20 -37 0 -7 6 -18 14 -24 8 -7 17 -24 21 -38 3 -15 15 -38
26 -51 10 -14 19 -33 19 -42 0 -10 7 -23 14 -30 8 -6 20 -28 27 -48 6 -20 17
-44 24 -52 8 -8 17 -28 21 -45 4 -16 15 -41 26 -54 10 -13 18 -33 18 -45 0
-12 12 -37 26 -54 32 -38 69 -42 107 -12 14 11 36 20 50 20 14 0 32 6 40 14 8
8 33 19 55 26 36 9 42 15 42 38 0 32 -25 107 -45 136 -8 11 -15 28 -15 37 0 9
-8 27 -19 40 -10 13 -22 39 -26 57 -4 18 -13 36 -21 39 -7 3 -16 20 -20 38 -3
19 -15 41 -25 51 -10 9 -19 27 -19 39 0 12 -9 30 -20 40 -11 10 -20 25 -20 34
0 19 -49 90 -69 100 -9 4 -25 5 -36 3z"/>
<path d="M12673 9681 c-10 -10 -32 -22 -50 -25 -17 -4 -37 -13 -43 -21 -6 -7
-23 -16 -38 -20 -30 -7 -82 -52 -82 -71 0 -6 7 -17 15 -24 8 -7 15 -23 15 -35
0 -12 9 -34 20 -48 11 -14 20 -34 20 -45 0 -10 9 -31 20 -44 10 -14 24 -44 29
-67 5 -23 16 -50 25 -60 9 -10 16 -32 16 -49 0 -17 4 -33 9 -36 5 -3 18 -26
30 -50 l21 -45 52 6 c29 3 67 14 84 24 17 11 47 19 66 19 51 0 88 32 88 77 0
20 -9 46 -20 60 -11 14 -20 37 -20 51 0 13 -8 39 -19 56 -10 17 -21 47 -25 68
-4 20 -13 38 -20 41 -7 3 -16 23 -19 45 -4 22 -13 45 -22 52 -8 6 -17 28 -21
49 -4 20 -14 45 -24 56 -9 11 -20 28 -23 38 -9 23 -61 22 -84 -2z"/>
<path d="M1227 9683 c-4 -3 -7 -14 -7 -23 0 -10 -9 -28 -19 -42 -11 -13 -24
-42 -30 -63 -6 -22 -18 -49 -26 -59 -8 -11 -15 -30 -15 -42 0 -12 -9 -33 -20
-47 -11 -14 -20 -35 -20 -47 0 -11 -11 -42 -25 -68 -14 -26 -25 -56 -25 -68 0
-12 -7 -27 -15 -34 -8 -7 -15 -29 -15 -50 0 -39 11 -50 53 -50 12 0 36 -9 52
-20 17 -11 44 -20 60 -20 17 0 45 -9 63 -20 45 -28 61 -25 78 13 8 17 22 43
29 57 8 14 15 36 15 49 0 14 7 32 16 42 9 10 18 36 21 58 3 22 14 48 24 57 11
9 19 29 19 44 0 15 8 38 18 51 11 13 22 38 26 54 4 17 14 37 21 45 29 33 22
52 -35 87 -30 18 -63 33 -72 33 -9 0 -20 5 -23 11 -8 11 -111 59 -130 59 -6 0
-15 -3 -18 -7z"/>
<path d="M475 9478 c-14 -29 -25 -59 -25 -65 0 -7 -8 -32 -19 -55 -22 -52 -47
-125 -66 -193 -14 -52 -38 -129 -56 -180 -26 -71 -32 -114 -21 -128 7 -8 40
-17 74 -21 34 -3 73 -13 86 -22 14 -9 48 -17 76 -18 l50 -1 27 49 c15 26 29
71 32 99 4 27 13 57 21 66 8 9 17 39 21 66 4 28 14 58 22 67 8 9 17 36 20 60
3 24 14 54 24 67 11 13 19 34 19 47 0 13 7 39 16 58 19 39 13 66 -14 66 -11 0
-31 9 -44 20 -14 10 -44 24 -67 29 -23 5 -50 16 -60 25 -10 9 -34 16 -55 16
-35 0 -38 -3 -61 -52z"/>
<path d="M13476 9505 c-3 -9 -18 -15 -34 -15 -16 0 -41 -9 -54 -20 -14 -10
-44 -22 -68 -26 -52 -8 -84 -51 -69 -91 5 -13 9 -33 9 -45 0 -11 9 -31 20 -45
12 -15 20 -41 20 -63 0 -22 8 -48 20 -63 11 -14 20 -38 20 -54 0 -16 9 -47 20
-68 12 -22 23 -60 27 -85 3 -25 11 -54 18 -66 8 -11 18 -40 25 -62 9 -36 14
-42 38 -42 16 0 33 5 40 12 6 6 36 15 65 19 30 4 78 18 106 30 49 23 51 25 51
64 0 22 -9 57 -20 78 -11 20 -20 54 -20 76 0 23 -8 48 -20 64 -11 14 -20 40
-20 59 0 18 -9 48 -20 66 -11 17 -23 51 -26 75 -4 23 -13 49 -21 58 -8 9 -17
34 -20 55 -7 40 -49 104 -69 104 -7 0 -14 -7 -18 -15z"/>
<path d="M13000 8870 c-14 -12 -37 -20 -60 -20 -22 0 -48 -8 -63 -20 -14 -11
-34 -20 -45 -20 -12 0 -32 -4 -46 -10 -30 -11 -35 -52 -11 -84 8 -11 15 -38
15 -61 0 -22 7 -51 16 -63 9 -13 20 -55 25 -94 5 -39 15 -78 23 -87 7 -9 16
-47 19 -85 4 -38 11 -74 17 -80 13 -13 188 -10 240 4 19 6 48 20 65 34 28 22
28 25 14 47 -9 13 -19 54 -22 91 -3 37 -13 78 -22 92 -9 13 -19 51 -22 83 -3
32 -14 74 -25 93 -10 19 -18 53 -18 75 0 30 -8 52 -31 83 -17 23 -34 42 -38
42 -5 0 -18 -9 -31 -20z"/>
<path d="M909 8811 c-17 -29 -31 -67 -35 -101 -3 -30 -13 -66 -21 -78 -8 -13
-17 -49 -19 -80 -3 -32 -14 -75 -24 -97 -20 -42 -31 -180 -16 -203 4 -6 27
-12 51 -12 24 0 67 -9 95 -20 57 -22 130 -26 148 -8 7 7 12 30 12 53 0 22 8
56 19 75 10 19 21 63 24 98 3 34 12 74 21 87 9 13 19 50 22 82 4 32 12 65 19
73 45 53 9 114 -74 126 -25 3 -57 13 -71 22 -14 9 -47 19 -74 22 l-48 7 -29
-46z"/>
<path d="M207 8584 c-3 -11 -11 -45 -16 -77 -6 -32 -13 -63 -17 -68 -3 -6 -12
-52 -20 -102 -7 -51 -20 -123 -28 -162 -8 -38 -17 -114 -21 -167 -8 -112 -19
-102 119 -114 44 -3 89 -12 100 -19 30 -19 76 -8 87 22 5 13 9 49 9 79 0 29 9
80 19 111 11 32 22 94 24 138 3 44 12 94 21 110 8 17 18 65 22 107 7 85 -1
108 -40 108 -12 0 -39 9 -60 19 -22 12 -71 23 -116 27 -71 6 -78 5 -83 -12z"/>
<path d="M13721 8574 c-13 -9 -55 -20 -94 -24 -61 -7 -75 -12 -95 -36 -22 -25
-24 -35 -20 -89 3 -33 13 -75 21 -92 9 -17 19 -68 23 -114 4 -49 13 -94 22
-109 11 -17 17 -55 19 -115 6 -149 -9 -135 152 -135 154 0 165 4 164 63 -1 97
-17 246 -30 272 -8 17 -18 71 -23 120 -5 50 -16 107 -24 127 -9 21 -16 51 -16
67 0 53 -16 81 -48 81 -15 0 -38 -7 -51 -16z"/>
<path d="M13197 8013 c-4 -3 -53 -10 -108 -14 -136 -9 -135 -8 -131 -155 2
-63 10 -139 18 -167 8 -29 17 -99 21 -157 3 -58 10 -111 16 -117 7 -9 49 -13
148 -13 123 0 139 2 148 18 14 26 -2 370 -18 401 -7 12 -15 57 -18 99 -3 43
-10 85 -15 95 -9 17 -48 24 -61 10z"/>
<path d="M732 7984 c-21 -17 -23 -31 -31 -159 -5 -77 -13 -152 -19 -166 -14
-34 -27 -209 -18 -243 10 -39 49 -53 172 -59 98 -6 113 -4 127 11 26 29 37 91
48 262 5 91 15 183 20 205 25 94 24 101 -12 114 -17 6 -43 11 -56 11 -13 0
-37 7 -54 15 -16 9 -58 18 -92 22 -51 4 -66 2 -85 -13z"/>
<path d="M81 7651 c-23 -15 -40 -215 -40 -479 -1 -276 -16 -253 161 -243 163
9 158 1 167 259 10 326 8 414 -9 422 -57 28 -256 57 -279 41z"/>
<path d="M13702 7613 c-62 -6 -66 -20 -57 -248 4 -104 8 -241 8 -303 2 -146
-3 -142 173 -142 112 0 135 3 150 17 15 16 16 36 10 223 -4 113 -14 252 -22
310 -23 167 -9 150 -122 148 -53 -1 -116 -3 -140 -5z"/>
<path d="M13040 7141 c-14 -4 -27 -17 -31 -31 -4 -14 -7 -143 -8 -286 -1 -198
2 -264 12 -271 6 -6 63 -13 125 -16 62 -4 121 -11 132 -17 16 -8 21 -6 31 12
15 27 30 225 34 436 3 190 10 182 -155 181 -63 -1 -126 -4 -140 -8z"/>
<path d="M673 7102 c-20 -20 -19 -575 1 -591 16 -14 52 -16 183 -13 88 2 93 3
123 33 18 19 29 38 26 48 -18 59 -26 130 -32 308 -4 131 -11 206 -18 212 -19
16 -267 18 -283 3z"/>
<path d="M186 6683 c-65 -2 -116 -9 -124 -16 -11 -8 -13 -24 -8 -62 4 -27 11
-131 16 -230 5 -99 14 -194 20 -210 7 -17 16 -61 21 -99 5 -38 13 -74 18 -80
15 -18 230 4 264 27 26 17 27 21 27 110 0 58 -8 122 -20 172 -15 60 -20 115
-20 221 0 101 -4 144 -12 152 -19 15 -62 18 -182 15z"/>
<path d="M13677 6674 c-29 -9 -37 -47 -37 -173 0 -82 -6 -139 -19 -192 -10
-41 -21 -125 -24 -187 -4 -106 -3 -113 16 -127 12 -8 39 -15 60 -15 21 0 50
-6 65 -14 39 -20 104 -29 133 -17 24 9 26 15 33 93 4 45 14 103 22 127 9 27
17 103 20 205 4 88 10 178 14 198 6 28 3 44 -11 67 -17 28 -23 31 -71 31 -29
0 -82 2 -118 5 -36 2 -73 2 -83 -1z"/>
<path d="M12973 6289 c-7 -7 -13 -37 -13 -66 0 -29 -9 -79 -19 -110 -11 -32
-21 -94 -24 -139 -3 -44 -11 -94 -20 -110 -8 -16 -17 -48 -21 -71 -5 -35 -2
-46 17 -69 20 -23 35 -29 96 -35 40 -4 79 -13 87 -19 19 -16 79 -29 94 -20 6
4 15 22 20 41 5 19 15 52 24 74 8 22 15 68 16 103 0 35 7 79 16 100 9 21 19
85 24 152 9 130 4 143 -59 160 -66 17 -225 24 -238 9z"/>
<path d="M823 6253 c-66 -3 -95 -8 -104 -19 -17 -21 -13 -114 6 -161 9 -21 19
-76 22 -123 3 -47 14 -107 24 -133 11 -26 19 -73 19 -103 0 -47 4 -59 26 -79
30 -28 56 -32 73 -11 6 7 37 16 70 19 45 5 144 42 170 63 2 2 -4 19 -13 38 -9
19 -16 59 -16 93 0 35 -7 70 -16 88 -11 19 -20 70 -24 137 -12 169 -29 200
-107 196 -21 -1 -79 -4 -130 -5z"/>
<path d="M406 5759 c-10 -6 -59 -14 -108 -18 -85 -6 -92 -8 -114 -36 l-23 -30
19 -40 c11 -22 19 -62 20 -88 0 -27 9 -69 19 -95 11 -26 22 -73 25 -106 2 -32
11 -65 20 -75 8 -9 18 -41 22 -71 4 -30 15 -71 25 -90 11 -19 19 -42 19 -51 0
-32 27 -43 64 -25 19 9 47 16 63 16 15 0 42 9 58 20 17 11 44 20 60 20 17 0
36 5 43 12 18 18 14 74 -8 110 -12 20 -20 51 -20 78 0 28 -8 56 -20 75 -12 18
-20 48 -20 75 -1 25 -8 63 -16 85 -9 22 -21 74 -26 115 -8 58 -16 81 -36 103
-28 30 -38 32 -66 16z"/>
<path d="M13530 5725 c-7 -8 -15 -45 -18 -82 -3 -38 -13 -84 -23 -103 -11 -20
-19 -55 -19 -85 0 -31 -8 -64 -20 -88 -11 -20 -20 -52 -20 -70 0 -18 -8 -49
-19 -69 -10 -20 -21 -53 -24 -74 -5 -32 -2 -41 27 -70 25 -25 43 -34 68 -34
18 0 50 -9 71 -20 41 -22 107 -26 125 -8 7 7 12 23 12 36 0 14 8 39 19 56 10
17 21 55 24 85 4 29 13 63 20 75 8 12 18 51 22 86 4 36 14 76 22 89 8 12 19
55 23 95 5 39 12 85 16 103 7 36 -6 46 -75 57 -24 4 -56 13 -72 21 -38 20
-142 20 -159 0z"/>
<path d="M12800 5451 c-5 -11 -10 -32 -10 -48 0 -16 -8 -39 -17 -53 -9 -13
-20 -48 -24 -78 -4 -30 -14 -61 -23 -71 -8 -9 -18 -37 -22 -61 -4 -25 -16 -58
-26 -75 -10 -16 -18 -41 -18 -54 0 -14 -7 -32 -16 -42 -15 -16 -14 -20 11 -53
19 -25 35 -36 54 -36 14 0 40 -9 58 -19 17 -11 47 -23 67 -26 19 -4 40 -13 47
-21 6 -8 15 -14 20 -14 15 0 69 82 69 104 0 12 9 38 20 58 11 21 23 57 26 80
4 24 13 50 21 60 8 9 18 41 22 71 4 31 14 63 21 72 18 22 31 126 17 143 -17
22 -96 51 -157 58 -33 4 -63 11 -66 15 -10 17 -63 10 -74 -10z"/>
<path d="M1093 5424 c-12 -8 -48 -18 -80 -21 -61 -6 -133 -43 -133 -69 0 -8 9
-31 20 -51 11 -21 20 -54 20 -73 0 -20 8 -46 17 -59 9 -14 20 -47 24 -74 5
-27 15 -57 24 -67 8 -9 15 -30 15 -46 0 -16 9 -44 20 -62 11 -18 20 -44 20
-57 0 -29 32 -65 59 -65 26 0 83 20 102 36 8 8 37 18 62 23 53 10 97 48 97 84
0 12 -11 45 -25 72 -13 28 -25 61 -25 75 0 14 -9 39 -20 55 -11 17 -20 44 -20
60 0 17 -8 46 -18 65 -11 19 -22 56 -25 83 -9 64 -41 107 -81 106 -17 0 -41
-7 -53 -15z"/>
<path d="M628 4850 c-26 -5 -57 -15 -70 -24 -12 -9 -37 -16 -55 -16 -53 0 -99
-65 -70 -98 8 -9 18 -33 22 -52 4 -19 16 -49 26 -66 10 -17 19 -42 19 -54 0
-13 7 -31 16 -41 9 -10 20 -37 25 -61 6 -23 16 -50 23 -58 8 -8 17 -32 20 -53
4 -21 13 -40 21 -43 7 -3 16 -21 20 -40 3 -19 19 -54 36 -79 33 -48 57 -54 98
-23 13 10 31 18 41 18 9 0 27 9 40 20 13 11 33 20 45 20 11 0 36 16 55 35 l34
35 -22 20 c-12 12 -22 31 -22 44 0 13 -9 35 -20 49 -11 14 -20 33 -20 42 0 9
-11 37 -25 63 -14 26 -25 55 -25 65 0 11 -9 30 -20 44 -11 14 -20 37 -20 50 0
14 -9 36 -20 50 -11 14 -20 41 -20 59 0 35 -50 105 -74 103 -6 -1 -32 -5 -58
-9z"/>
<path d="M13289 4821 c-18 -18 -29 -40 -29 -57 0 -14 -9 -41 -19 -58 -11 -17
-22 -48 -26 -68 -4 -21 -13 -42 -21 -49 -7 -6 -16 -27 -20 -48 -4 -20 -15 -47
-25 -60 -11 -13 -19 -36 -19 -51 0 -15 -9 -35 -20 -45 -11 -10 -20 -30 -20
-45 0 -15 -9 -35 -20 -45 -15 -14 -20 -29 -18 -54 3 -31 7 -36 37 -42 19 -4
38 -14 43 -22 4 -9 23 -19 41 -23 17 -3 42 -14 53 -23 13 -11 39 -17 65 -17
40 1 44 4 67 46 13 25 29 61 34 80 6 19 16 42 23 50 7 8 16 29 20 47 3 17 12
37 20 43 7 6 16 27 20 48 4 20 15 51 26 68 10 17 19 41 19 53 0 12 8 39 19 59
10 20 25 58 34 84 16 54 26 42 -78 97 -21 12 -53 21 -70 21 -16 0 -43 9 -60
20 -39 26 -41 25 -76 -9z"/>
<path d="M12545 4672 c-24 -16 -55 -66 -55 -87 0 -12 -9 -30 -20 -40 -11 -10
-20 -28 -20 -40 0 -12 -9 -34 -20 -48 -11 -14 -20 -33 -20 -42 0 -9 -9 -28
-20 -42 -11 -14 -20 -31 -20 -38 0 -7 -8 -23 -19 -36 -10 -13 -22 -35 -26 -49
-4 -14 -16 -34 -26 -45 -18 -20 -18 -22 4 -53 12 -17 33 -36 47 -42 41 -18 90
-47 110 -65 11 -10 38 -17 66 -18 45 -2 48 0 70 38 13 22 26 47 29 55 4 8 11
22 16 30 5 8 18 33 29 55 12 22 27 51 35 65 8 14 15 32 15 41 0 9 7 22 15 29
9 7 20 32 26 56 6 24 15 44 19 44 15 0 39 88 31 117 -6 22 -16 30 -48 38 -22
6 -47 16 -55 22 -8 7 -30 16 -49 19 -19 4 -45 15 -58 26 -25 19 -40 22 -56 10z"/>
<path d="M1371 4614 c-24 -13 -54 -24 -66 -24 -12 0 -30 -9 -39 -19 -10 -11
-32 -21 -50 -23 -27 -3 -31 -7 -34 -36 -2 -21 4 -41 17 -58 12 -15 21 -33 21
-41 0 -8 9 -26 20 -40 11 -14 20 -36 20 -48 0 -12 9 -30 20 -40 11 -10 20 -29
20 -42 0 -13 9 -31 20 -40 11 -10 20 -28 20 -40 0 -13 9 -32 20 -43 11 -11 23
-34 27 -51 3 -17 12 -33 20 -36 8 -3 19 -16 24 -29 11 -30 56 -32 91 -5 13 11
37 23 52 27 14 3 31 15 37 25 5 11 20 19 34 19 15 0 33 12 50 34 l25 33 -20
44 c-22 46 -33 68 -61 109 -8 14 -21 42 -28 63 -7 20 -17 37 -22 37 -5 0 -9 6
-9 13 0 7 -13 39 -30 72 -16 33 -30 66 -30 73 0 14 -38 72 -55 84 -18 13 -49
7 -94 -18z"/>
<path d="M984 3976 c-23 -13 -50 -26 -60 -30 -44 -16 -100 -54 -111 -76 -10
-21 -9 -28 6 -45 9 -11 32 -49 50 -85 34 -69 45 -89 72 -130 9 -14 20 -37 24
-50 4 -14 16 -31 26 -38 11 -7 19 -21 19 -31 0 -9 7 -26 15 -36 29 -38 65 -96
65 -105 0 -5 15 -26 34 -46 34 -37 35 -37 60 -21 14 9 32 17 41 17 9 0 26 10
38 23 12 13 29 27 37 31 113 54 122 78 61 167 -23 33 -48 74 -56 92 -8 18 -24
46 -35 62 -11 17 -29 49 -40 73 -10 23 -23 42 -29 42 -5 0 -12 15 -15 34 -4
19 -13 36 -20 39 -8 3 -19 22 -26 41 -6 20 -15 36 -20 36 -4 0 -13 14 -20 30
-10 25 -18 30 -44 29 -17 0 -50 -11 -72 -23z"/>
<path d="M12913 3962 c-17 -21 -33 -48 -38 -61 -4 -12 -16 -32 -26 -42 -10
-10 -19 -27 -19 -37 0 -11 -9 -27 -20 -37 -11 -10 -20 -25 -20 -35 0 -9 -7
-25 -15 -35 -30 -39 -63 -93 -69 -113 -4 -10 -15 -27 -26 -37 -11 -10 -20 -25
-20 -33 0 -9 -9 -25 -19 -36 -11 -12 -22 -37 -26 -57 -6 -34 -4 -37 51 -80 63
-48 112 -76 158 -90 26 -7 33 -5 61 24 18 19 36 44 40 58 4 13 14 32 23 42 18
20 35 49 56 93 8 17 22 36 30 43 8 7 18 26 21 42 4 16 10 29 15 29 5 0 23 30
41 68 18 37 38 74 45 82 7 8 19 34 27 58 15 42 15 44 -8 54 -13 6 -25 18 -28
28 -3 10 -19 21 -38 25 -19 4 -45 16 -58 26 -13 11 -32 19 -42 19 -10 0 -21 4
-24 10 -3 5 -14 14 -24 20 -15 7 -24 2 -48 -28z"/>
<path d="M12142 3910 c-12 -5 -26 -20 -32 -34 -5 -13 -27 -50 -49 -82 -23 -33
-41 -63 -41 -68 0 -5 -7 -16 -15 -25 -29 -31 -61 -76 -73 -103 -6 -16 -16 -28
-22 -28 -5 0 -10 -6 -10 -13 0 -7 -11 -23 -25 -35 -18 -15 -25 -32 -25 -56 0
-34 17 -54 80 -96 12 -8 45 -36 72 -61 41 -37 55 -45 79 -41 21 3 33 12 40 28
10 28 48 84 67 99 14 11 33 42 57 93 8 17 19 32 24 32 10 0 47 57 68 103 6 15
16 27 22 27 5 0 15 15 21 34 6 19 18 40 26 46 37 32 0 74 -116 131 -14 7 -34
21 -45 31 -26 22 -73 30 -103 18z"/>
<path d="M1822 3888 c-13 -13 -46 -32 -99 -57 -24 -11 -43 -24 -43 -30 0 -5
-12 -12 -27 -16 -16 -4 -34 -11 -40 -17 -20 -16 -15 -72 7 -101 11 -14 20 -30
20 -36 0 -6 9 -16 20 -23 11 -7 20 -17 20 -22 0 -5 17 -33 38 -64 20 -30 42
-61 47 -71 29 -47 53 -81 92 -129 23 -29 45 -61 48 -72 11 -34 53 -24 114 26
31 25 60 52 64 60 4 8 12 14 16 14 17 0 71 59 71 77 0 11 -20 46 -45 77 -25
32 -45 62 -45 66 0 4 -20 34 -45 66 -25 31 -45 62 -45 67 0 5 -17 30 -38 56
-22 25 -42 58 -45 72 -8 32 -69 73 -85 57z"/>
<path d="M11605 3174 c-27 -31 -57 -63 -65 -72 -9 -9 -40 -46 -70 -82 -30 -36
-80 -92 -112 -125 -35 -37 -58 -69 -58 -82 0 -29 175 -223 201 -223 12 0 258
248 278 282 21 34 79 104 109 131 12 12 22 32 22 48 0 23 -10 35 -57 66 -32
21 -76 55 -98 75 -58 56 -87 52 -150 -18z"/>
<path d="M1503 3193 c-18 -9 -33 -21 -33 -25 0 -5 -12 -15 -27 -21 -52 -24
-93 -52 -93 -64 0 -7 -9 -17 -20 -23 -11 -6 -20 -17 -20 -24 0 -7 9 -23 20
-36 11 -13 20 -27 20 -32 0 -5 28 -44 63 -88 34 -43 76 -98 94 -122 18 -23 47
-60 65 -80 18 -20 44 -53 58 -72 73 -105 109 -126 145 -86 10 11 21 20 25 20
4 0 26 17 50 38 136 117 136 117 -22 286 -27 28 -48 54 -48 59 0 5 -11 23 -25
41 -14 17 -34 41 -43 54 -9 12 -24 30 -33 40 -8 9 -31 41 -50 70 -18 30 -46
60 -61 68 -32 16 -25 17 -65 -3z"/>
<path d="M2315 3193 c-11 -3 -30 -15 -42 -27 -36 -36 -56 -51 -85 -63 -15 -7
-28 -16 -28 -21 0 -5 -11 -14 -25 -20 -34 -15 -35 -70 -2 -99 29 -25 72 -74
162 -181 120 -145 178 -201 215 -208 31 -7 37 -3 117 82 84 89 100 116 89 151
-4 10 -64 77 -134 149 -70 72 -149 157 -175 188 -48 55 -53 58 -92 49z"/>
<path d="M12394 3133 c-21 -32 -45 -66 -53 -75 -9 -10 -25 -28 -37 -40 -11
-13 -33 -43 -49 -68 -32 -49 -34 -51 -103 -127 -89 -98 -106 -125 -96 -155 8
-26 99 -116 167 -164 l43 -32 31 27 c17 14 60 64 95 111 36 47 79 100 97 119
18 19 49 59 69 90 20 31 44 63 54 71 30 27 68 92 68 117 0 15 -13 37 -32 56
-39 37 -109 87 -123 87 -6 0 -16 9 -23 20 -8 13 -23 20 -42 20 -24 0 -35 -9
-66 -57z"/>
<path d="M11054 2600 c-47 -38 -139 -118 -205 -180 -60 -57 -70 -65 -98 -79
-12 -7 -31 -20 -41 -29 -10 -9 -26 -23 -35 -31 -28 -23 -12 -61 53 -123 12
-12 22 -25 22 -29 0 -5 14 -28 30 -53 35 -52 77 -68 113 -42 12 9 33 24 47 33
14 10 39 32 56 49 28 27 88 77 177 147 73 57 137 126 137 148 0 25 -173 212
-201 217 -8 2 -33 -11 -55 -28z"/>
<path d="M2803 2493 c-51 -53 -93 -105 -93 -115 0 -19 19 -41 64 -73 16 -11
41 -31 56 -45 148 -134 187 -166 257 -214 23 -15 44 -34 47 -42 3 -8 19 -14
40 -14 29 0 39 7 65 42 17 23 31 46 31 51 0 5 10 20 23 33 50 51 57 62 63 90
5 26 -1 35 -52 79 -78 68 -93 80 -139 115 -59 45 -123 100 -171 148 -65 65
-81 60 -191 -55z"/>
<path d="M2059 2433 c-41 -37 -77 -74 -81 -83 -3 -10 -13 -20 -21 -23 -8 -3
-17 -18 -20 -33 -4 -24 6 -40 72 -112 42 -46 139 -140 216 -209 77 -70 144
-132 148 -140 4 -7 21 -13 37 -13 22 0 44 16 97 68 92 92 112 121 99 147 -12
24 -401 410 -445 443 l-29 21 -73 -66z"/>
<path d="M11616 2247 c-124 -123 -226 -231 -226 -239 0 -22 79 -121 141 -176
28 -26 54 -46 56 -45 3 1 21 16 41 34 280 253 442 415 442 443 0 26 -179 206
-206 206 -15 0 -95 -72 -248 -223z"/>
<path d="M10394 2080 c-12 -4 -24 -15 -27 -24 -4 -9 -13 -16 -20 -16 -8 0 -22
-9 -32 -20 -10 -11 -25 -20 -33 -20 -9 0 -26 -10 -38 -21 -25 -24 -51 -40
-100 -63 -17 -9 -34 -22 -37 -31 -4 -8 -16 -15 -28 -15 -11 0 -35 -11 -53 -25
-17 -14 -36 -29 -42 -34 -15 -12 -1 -101 18 -115 8 -6 20 -26 26 -44 6 -18 18
-40 27 -48 8 -8 15 -24 15 -34 0 -21 36 -50 62 -50 9 0 22 9 28 20 6 11 18 20
26 20 19 0 114 60 114 72 0 4 9 8 19 8 11 0 32 10 48 23 38 30 62 44 101 62
17 9 32 19 32 25 0 5 29 25 65 45 84 47 85 68 10 150 -29 31 -75 99 -75 111 0
13 -44 34 -68 33 -9 0 -26 -4 -38 -9z"/>
<path d="M3542 2038 c-18 -23 -32 -46 -32 -51 0 -6 -8 -19 -17 -29 -10 -11
-27 -29 -38 -41 -12 -12 -28 -34 -38 -49 -15 -25 -16 -29 -1 -55 16 -27 91
-83 112 -83 5 0 15 -7 22 -15 7 -8 38 -29 69 -47 31 -17 64 -40 74 -50 10 -10
26 -18 36 -18 10 0 26 -9 36 -20 10 -11 23 -20 28 -20 6 0 18 -7 28 -16 9 -8
38 -22 63 -29 46 -14 46 -14 63 13 10 15 23 30 29 35 7 4 15 21 19 38 4 17 16
40 26 50 10 10 19 26 19 34 0 9 10 29 22 46 l22 29 -35 30 c-18 16 -45 33 -59
36 -14 4 -33 15 -43 25 -10 11 -23 19 -30 19 -7 0 -41 20 -77 45 -36 25 -69
45 -73 45 -4 0 -30 18 -58 40 -28 22 -56 40 -63 40 -7 0 -21 9 -31 20 -26 29
-37 25 -73 -22z"/>
<path d="M2758 1801 c-26 -33 -51 -67 -54 -76 -4 -9 -22 -34 -40 -54 -19 -20
-34 -38 -34 -42 0 -11 98 -96 152 -132 31 -20 69 -50 85 -65 15 -16 51 -41 78
-57 28 -16 59 -38 71 -49 33 -33 67 -56 81 -56 7 0 20 -9 30 -19 10 -11 30
-22 44 -26 26 -6 44 10 99 91 8 12 29 42 45 66 48 67 48 73 11 113 -18 19 -36
35 -39 35 -13 0 -102 63 -152 108 -15 12 -31 22 -36 22 -6 0 -43 26 -82 58
-40 32 -83 65 -97 75 -67 47 -100 67 -107 66 -5 0 -29 -26 -55 -58z"/>
<path d="M11125 1810 c-10 -11 -24 -20 -31 -20 -12 0 -27 -11 -101 -78 -21
-19 -53 -42 -73 -52 -19 -10 -53 -35 -74 -54 -22 -20 -43 -36 -47 -36 -12 0
-99 -61 -99 -69 0 -4 -11 -13 -25 -19 -23 -11 -25 -16 -19 -49 8 -45 52 -120
76 -128 9 -3 19 -16 22 -28 3 -12 18 -35 35 -51 29 -28 29 -28 57 -9 16 10 37
26 46 36 10 9 24 17 31 17 8 0 22 9 32 20 10 11 24 20 31 20 7 0 17 6 21 14 9
16 79 66 91 66 5 0 26 16 47 36 22 20 64 52 93 71 89 59 112 84 112 119 0 18
-8 38 -20 49 -11 10 -22 27 -26 38 -4 12 -12 26 -18 33 -6 6 -26 30 -45 53
-40 47 -85 56 -116 21z"/>
<path d="M9647 1640 c-14 -11 -31 -20 -39 -20 -8 0 -29 -11 -48 -25 -19 -14
-42 -25 -53 -25 -10 0 -30 -9 -44 -20 -14 -11 -36 -20 -48 -20 -12 0 -33 -8
-46 -19 -13 -10 -40 -21 -59 -25 -19 -4 -50 -19 -69 -35 -32 -26 -33 -30 -27
-74 4 -26 14 -54 22 -62 8 -8 18 -32 21 -52 9 -58 50 -123 78 -123 12 0 28 7
35 15 7 8 30 18 51 21 21 4 46 15 55 25 9 11 30 19 46 19 16 0 36 9 45 20 10
11 29 20 44 20 14 0 34 9 44 20 10 11 28 20 39 20 12 0 39 12 61 25 22 14 48
25 57 25 29 0 60 49 52 84 -3 17 -11 36 -18 41 -7 6 -26 39 -44 75 -17 36 -41
76 -52 88 -26 28 -69 28 -103 2z"/>
<path d="M4292 1638 c-7 -7 -12 -19 -12 -28 0 -9 -9 -25 -19 -34 -11 -10 -23
-31 -26 -47 -4 -16 -11 -31 -16 -34 -16 -10 -61 -115 -56 -129 3 -8 20 -17 37
-21 17 -4 34 -13 37 -21 3 -7 21 -16 40 -20 20 -4 44 -15 54 -25 11 -11 28
-19 40 -19 11 0 32 -9 46 -20 14 -11 34 -20 44 -20 10 0 39 -11 65 -25 26 -14
54 -25 62 -25 9 0 23 -7 33 -16 24 -22 104 -31 124 -14 8 7 15 24 15 38 0 13
8 39 19 56 10 17 21 47 25 67 4 21 13 42 21 49 19 16 19 54 0 73 -8 9 -29 19
-47 22 -18 4 -44 16 -57 26 -13 11 -35 19 -48 19 -14 0 -36 9 -50 20 -14 11
-36 20 -48 20 -12 0 -33 8 -46 19 -13 10 -39 22 -56 25 -18 4 -35 11 -38 16
-5 9 -112 60 -124 60 -4 0 -12 -5 -19 -12z"/>
<path d="M8925 1337 c-11 -6 -42 -14 -69 -18 -27 -5 -56 -15 -65 -22 -9 -8
-38 -18 -65 -22 -27 -4 -65 -15 -85 -26 -20 -10 -55 -19 -80 -19 -24 0 -52 -6
-60 -14 -9 -8 -32 -18 -51 -23 l-35 -9 -3 -68 c-2 -49 1 -75 13 -92 9 -14 19
-50 23 -82 l7 -57 53 -3 c38 -2 62 2 79 14 14 9 55 20 90 24 36 5 72 15 81 23
9 8 38 17 64 20 26 4 64 16 85 27 21 11 51 20 67 20 39 0 86 44 86 81 0 14 -8
37 -19 50 -10 13 -22 43 -26 67 -4 23 -13 49 -20 56 -8 7 -17 25 -20 39 -10
37 -26 48 -50 34z"/>
<path d="M3543 1280 c-18 -21 -33 -45 -33 -54 0 -8 -5 -18 -10 -21 -6 -4 -17
-21 -26 -38 -8 -18 -22 -45 -30 -60 -15 -28 -15 -30 12 -58 15 -16 55 -43 88
-60 34 -18 65 -38 69 -45 4 -8 18 -14 31 -14 13 0 31 -9 40 -19 10 -11 31 -23
46 -26 15 -3 36 -15 46 -26 9 -10 27 -19 39 -19 12 0 30 -9 40 -20 10 -11 28
-20 40 -20 12 0 30 -9 40 -20 22 -24 99 -37 120 -20 8 7 15 21 15 30 0 10 11
32 25 48 14 17 25 39 25 49 0 11 9 28 20 38 28 25 27 85 -1 109 -12 10 -36 23
-53 29 -17 5 -42 18 -55 29 -13 10 -32 18 -41 18 -10 0 -23 6 -29 14 -7 8 -27
18 -44 22 -18 3 -44 17 -59 29 -15 12 -48 33 -75 46 -26 12 -52 29 -56 36 -4
7 -17 13 -27 13 -10 0 -31 11 -46 25 -39 37 -73 32 -111 -15z"/>
<path d="M5073 1306 c-14 -11 -24 -32 -28 -61 -4 -24 -13 -49 -21 -56 -7 -6
-16 -27 -20 -48 -3 -20 -10 -51 -16 -69 -12 -41 0 -57 49 -67 20 -3 46 -13 58
-21 12 -7 44 -17 71 -21 27 -3 63 -15 79 -25 17 -10 48 -18 70 -18 22 0 56 -8
75 -19 19 -10 65 -21 101 -25 95 -9 111 5 120 112 4 48 13 90 23 104 36 51 5
98 -64 98 -19 0 -49 8 -65 18 -17 10 -56 21 -89 25 -32 3 -65 12 -75 21 -9 8
-41 18 -71 22 -30 3 -63 13 -72 21 -26 23 -99 28 -125 9z"/>
<path d="M10371 1301 c-11 -11 -32 -23 -45 -27 -14 -3 -30 -12 -36 -20 -7 -7
-42 -28 -78 -46 -37 -17 -73 -38 -80 -45 -7 -7 -19 -13 -26 -13 -7 0 -25 -9
-39 -20 -14 -11 -32 -20 -40 -20 -8 0 -25 -9 -39 -19 -13 -11 -38 -23 -54 -27
-16 -4 -41 -16 -55 -28 -15 -12 -35 -26 -45 -32 -18 -11 -18 -12 -1 -31 9 -11
17 -32 17 -46 0 -16 10 -36 25 -49 14 -12 25 -30 25 -39 0 -10 10 -34 23 -52
12 -19 27 -43 33 -53 11 -18 13 -18 30 -3 11 9 34 21 52 27 18 6 40 18 48 27
8 8 26 15 38 15 13 0 31 9 41 20 10 11 26 20 35 20 10 0 28 8 41 19 13 10 35
22 49 26 14 4 33 16 43 26 10 11 25 19 34 19 9 0 25 7 35 17 22 20 49 36 107
63 44 20 44 20 38 66 -2 24 -13 54 -22 65 -10 10 -20 32 -21 47 -2 15 -12 33
-24 41 -11 7 -20 19 -20 25 0 12 -33 46 -57 60 -7 4 -21 -2 -32 -13z"/>
<path d="M8030 1109 c-25 -4 -67 -8 -95 -8 -27 -1 -63 -8 -80 -17 -20 -10 -69
-18 -144 -21 -93 -5 -118 -10 -133 -25 -22 -22 -23 -70 -3 -128 8 -23 15 -64
15 -91 0 -26 5 -60 12 -74 13 -29 17 -29 103 -6 22 6 81 11 130 11 56 1 105 7
130 16 22 9 80 19 129 23 69 6 92 12 102 26 18 25 17 90 -2 140 -9 22 -19 60
-24 85 -16 87 -23 90 -140 69z"/>
<path d="M5903 1099 c-28 -36 -44 -86 -52 -169 -6 -49 -12 -94 -15 -99 -11
-17 26 -35 83 -42 31 -4 81 -14 111 -23 30 -9 91 -16 135 -16 44 0 114 -9 156
-19 89 -22 127 -18 133 13 3 11 7 75 10 142 7 174 13 167 -154 175 -85 4 -148
12 -170 22 -51 22 -223 33 -237 16z"/>
<path d="M6732 1002 c-15 -15 -20 -42 -25 -142 -5 -78 -3 -127 3 -135 6 -7 52
-15 111 -20 133 -9 494 4 515 19 14 11 14 19 0 86 -9 41 -16 97 -16 123 0 92
17 87 -295 87 -254 0 -276 -1 -293 -18z"/>
<path d="M4408 888 c-21 -7 -31 -20 -40 -51 -6 -23 -17 -49 -24 -57 -7 -8 -13
-19 -13 -25 0 -33 -14 -74 -26 -79 -42 -16 5 -79 66 -90 21 -4 42 -13 48 -20
7 -8 28 -17 49 -21 20 -4 51 -15 68 -26 17 -10 42 -19 54 -19 13 0 31 -7 41
-16 10 -9 37 -18 61 -21 24 -3 51 -12 60 -21 10 -8 41 -19 69 -23 28 -5 60
-15 69 -24 10 -9 29 -15 42 -13 19 2 25 12 33 54 6 27 19 63 29 79 10 16 21
48 24 72 2 24 9 46 13 49 17 10 9 24 -33 54 -24 17 -54 30 -71 30 -16 0 -44 8
-61 19 -17 10 -49 22 -71 26 -22 4 -47 13 -56 21 -9 8 -34 18 -55 21 -22 3
-50 14 -63 25 -13 10 -36 18 -51 18 -15 0 -38 8 -51 18 -31 24 -77 32 -111 20z"/>
<path d="M9511 876 c-7 -9 -29 -18 -50 -22 -20 -3 -48 -14 -63 -25 -15 -10
-37 -19 -50 -19 -13 0 -45 -12 -73 -25 -27 -14 -61 -25 -74 -25 -14 0 -32 -7
-42 -16 -10 -9 -37 -18 -61 -21 -24 -3 -49 -10 -56 -16 -7 -5 -27 -17 -45 -26
-44 -22 -49 -68 -13 -122 15 -22 26 -53 26 -71 0 -48 43 -108 77 -108 15 0 34
7 43 15 9 8 37 19 62 23 25 5 56 16 69 25 13 10 37 17 54 17 16 0 44 9 60 20
17 11 40 20 52 20 12 0 43 11 69 25 26 14 56 25 67 25 11 0 28 6 36 14 9 8 32
18 51 23 33 9 35 12 38 53 2 31 -2 51 -16 70 -11 14 -19 38 -19 53 0 15 -7 35
-15 45 -9 9 -20 31 -25 47 -8 26 -15 30 -50 33 -26 2 -44 -2 -52 -12z"/>
<path d="M5290 591 c-21 -6 -26 -15 -32 -56 -8 -58 -12 -73 -24 -100 -5 -11
-9 -47 -9 -80 l0 -60 53 -7 c30 -5 63 -15 75 -23 12 -8 42 -15 67 -15 25 -1
63 -8 85 -16 22 -9 76 -20 120 -25 44 -5 102 -18 128 -29 32 -14 64 -20 95
-18 l47 3 8 74 c4 40 14 80 22 87 17 18 31 103 19 121 -14 22 -112 52 -194 59
-41 4 -94 15 -117 25 -23 11 -64 19 -90 19 -28 0 -65 8 -86 19 -42 21 -130 33
-167 22z"/>
<path d="M8579 574 c-10 -9 -46 -18 -97 -23 -45 -5 -89 -14 -97 -21 -9 -7 -56
-16 -105 -21 -49 -5 -103 -15 -119 -24 -17 -8 -41 -15 -54 -15 -41 0 -50 -22
-43 -103 18 -194 25 -207 104 -207 26 1 65 8 87 16 22 9 78 21 125 26 47 5 98
17 114 25 16 8 57 18 90 21 34 3 77 13 96 23 19 11 42 19 52 19 35 0 48 12 48
44 0 18 -5 37 -12 44 -6 6 -12 33 -12 60 -1 27 -9 64 -18 83 -9 19 -19 42 -22
52 -7 23 -114 25 -137 1z"/>
<path d="M6208 419 c-6 -4 -15 -31 -19 -61 -5 -29 -11 -69 -15 -88 -4 -19 -7
-60 -8 -90 l-1 -55 75 -7 c41 -5 104 -15 140 -23 51 -12 112 -15 275 -13 l210
3 9 139 c6 109 5 140 -5 146 -7 5 -64 11 -128 15 -64 4 -150 13 -191 20 -83
16 -324 25 -342 14z"/>
<path d="M7470 404 c-36 -8 -123 -16 -194 -19 -71 -3 -133 -8 -138 -11 -5 -3
-7 -62 -4 -132 3 -70 5 -135 5 -144 1 -17 18 -18 224 -18 124 0 240 5 262 11
22 6 72 15 110 21 39 6 75 14 80 18 6 5 8 58 5 140 -4 101 -8 133 -20 140 -22
14 -256 10 -330 -6z"/>
</g>
</svg>
